<svg xmlns="http://www.w3.org/2000/svg" width="157" height="36" viewBox="0 0 157 36" fill="none"><g clip-path="url(#clip0_10_6719)"><path d="M71.1015 24.7142C69.815 24.7142 68.6487 24.4375 67.6026 23.8839C66.5686 23.3183 65.7511 22.5421 65.1499 21.5552C64.5607 20.5564 64.2662 19.4312 64.2662 18.1796C64.2662 16.928 64.5607 15.8089 65.1499 14.822C65.7511 13.8232 66.5686 13.0469 67.6026 12.4934C68.6487 11.9278 69.821 11.645 71.1195 11.645C72.2136 11.645 73.1996 11.8375 74.0773 12.2226C74.967 12.6077 75.7123 13.1613 76.3133 13.8833L74.438 15.6163C73.5843 14.6295 72.5263 14.1361 71.2638 14.1361C70.4823 14.1361 69.7849 14.3106 69.1717 14.6596C68.5585 14.9966 68.0776 15.4719 67.7289 16.0856C67.3922 16.6994 67.224 17.3974 67.224 18.1796C67.224 18.9619 67.3922 19.6598 67.7289 20.2736C68.0776 20.8874 68.5585 21.3687 69.1717 21.7177C69.7849 22.0547 70.4823 22.2232 71.2638 22.2232C72.5263 22.2232 73.5843 21.7238 74.438 20.7249L76.3133 22.4579C75.7123 23.192 74.967 23.7515 74.0773 24.1366C73.1876 24.5217 72.1956 24.7142 71.1015 24.7142Z" fill="#FBFBFC"></path><path d="M83.7899 24.7142C81.9863 24.7142 80.5793 24.2148 79.5697 23.216C78.5714 22.2171 78.0726 20.7911 78.0726 18.9378V11.8616H80.9947V18.8295C80.9947 21.092 81.9322 22.2232 83.808 22.2232C84.7214 22.2232 85.4193 21.9524 85.9 21.4109C86.3808 20.8573 86.6212 19.9968 86.6212 18.8295V11.8616H89.5073V18.9378C89.5073 20.7911 89.0017 22.2171 87.9921 23.216C86.9938 24.2148 85.5935 24.7142 83.7899 24.7142Z" fill="#FBFBFC"></path><path d="M101.664 17.9269C102.386 18.1556 102.951 18.5407 103.359 19.0822C103.768 19.6117 103.973 20.2676 103.973 21.0498C103.973 22.157 103.54 23.0114 102.674 23.6131C101.821 24.2028 100.57 24.4976 98.9228 24.4976H92.3941V11.8616H98.5622C100.101 11.8616 101.279 12.1565 102.097 12.7461C102.927 13.3358 103.341 14.1361 103.341 15.1469C103.341 15.7607 103.191 16.3083 102.891 16.7896C102.602 17.271 102.193 17.6501 101.664 17.9269ZM95.2975 14.0639V17.0424H98.2016C98.9228 17.0424 99.4697 16.916 99.843 16.6633C100.216 16.4105 100.402 16.0375 100.402 15.5441C100.402 15.0507 100.216 14.6836 99.843 14.443C99.4697 14.1902 98.9228 14.0639 98.2016 14.0639H95.2975ZM98.7064 22.2953C99.4757 22.2953 100.053 22.169 100.438 21.9163C100.835 21.6635 101.033 21.2724 101.033 20.7429C101.033 19.6959 100.258 19.1725 98.7064 19.1725H95.2975V22.2953H98.7064Z" fill="#FBFBFC"></path><path d="M114.499 21.7899H108.637L107.519 24.4976H104.525L110.152 11.8616H113.038L118.683 24.4976H115.617L114.499 21.7899ZM113.579 19.5696L111.577 14.7318L109.575 19.5696H113.579Z" fill="#FBFBFC"></path><path d="M121.974 14.2444H117.934V11.8616H128.935V14.2444H124.895V24.4976H121.974V14.2444Z" fill="#FBFBFC"></path><path d="M136.445 24.7142C135.135 24.7142 133.95 24.4315 132.893 23.8658C131.846 23.3003 131.023 22.524 130.421 21.5372C129.832 20.5384 129.538 19.4192 129.538 18.1796C129.538 16.9401 129.832 15.8269 130.421 14.8401C131.023 13.8413 131.846 13.059 132.893 12.4934C133.95 11.9278 135.135 11.645 136.445 11.645C137.756 11.645 138.934 11.9278 139.98 12.4934C141.026 13.059 141.85 13.8413 142.451 14.8401C143.052 15.8269 143.353 16.9401 143.353 18.1796C143.353 19.4192 143.052 20.5384 142.451 21.5372C141.85 22.524 141.026 23.3003 139.98 23.8658C138.934 24.4315 137.756 24.7142 136.445 24.7142ZM136.445 22.2232C137.191 22.2232 137.864 22.0547 138.465 21.7177C139.066 21.3687 139.535 20.8874 139.872 20.2736C140.221 19.6598 140.395 18.9619 140.395 18.1796C140.395 17.3974 140.221 16.6994 139.872 16.0856C139.535 15.4719 139.066 14.9966 138.465 14.6596C137.864 14.3106 137.191 14.1361 136.445 14.1361C135.7 14.1361 135.027 14.3106 134.425 14.6596C133.824 14.9966 133.349 15.4719 133.001 16.0856C132.664 16.6994 132.495 17.3974 132.495 18.1796C132.495 18.9619 132.664 19.6598 133.001 20.2736C133.349 20.8874 133.824 21.3687 134.425 21.7177C135.027 22.0547 135.7 22.2232 136.445 22.2232Z" fill="#FBFBFC"></path><path d="M153.592 24.4976L151.157 20.9776H151.013H148.47V24.4976H145.549V11.8616H151.013C152.132 11.8616 153.099 12.0481 153.916 12.4212C154.746 12.7943 155.383 13.3238 155.828 14.0097C156.274 14.6957 156.496 15.508 156.496 16.4467C156.496 17.3854 156.268 18.1976 155.81 18.8836C155.365 19.5575 154.728 20.075 153.898 20.4361L156.73 24.4976H153.592ZM153.538 16.4467C153.538 15.7366 153.309 15.1951 152.853 14.822C152.396 14.4369 151.728 14.2444 150.851 14.2444H148.47V18.649H150.851C151.728 18.649 152.396 18.4564 152.853 18.0713C153.309 17.6862 153.538 17.1446 153.538 16.4467Z" fill="#FBFBFC"></path><path d="M0 11.881H2.91712V24.4751H0V11.881Z" fill="#FBFBFC"></path><path d="M8.51953 14.2559H4.48596V11.881H15.4702V14.2559H11.4367V24.4751H8.51953V14.2559Z" fill="#FBFBFC"></path><path d="M33.7944 11.881H36.7156V24.4751H33.7944V11.881Z" fill="#FBFBFC"></path><path d="M51.2877 11.881V24.4751H48.8894L42.5963 16.8287V24.4751H39.7112V11.881H42.1275L48.4026 19.5274V11.881H51.2877Z" fill="#FBFBFC"></path><path fill-rule="evenodd" clip-rule="evenodd" d="M35.0428 6.53357C36.1271 6.53357 37.0063 7.41137 37.0063 8.49398C37.0063 9.57653 36.1271 10.4543 35.0428 10.4543C33.9584 10.4543 33.0792 9.57653 33.0792 8.49398C33.0792 7.41137 33.9584 6.53357 35.0428 6.53357Z" fill="#FF0808"></path><path fill-rule="evenodd" clip-rule="evenodd" d="M19.5235 16.0395C20.641 16.0395 21.5466 16.917 21.5466 17.9998C21.5466 19.0828 20.641 19.9603 19.5235 19.9603C18.4061 19.9603 17.5005 19.0828 17.5005 17.9998C17.5005 16.917 18.4061 16.0395 19.5235 16.0395Z" fill="#FBFBFC"></path><path fill-rule="evenodd" clip-rule="evenodd" d="M42.5459 34.5C51.673 34.5 59.0722 27.1127 59.0722 18C59.0722 8.88727 51.673 1.5 42.5459 1.5C33.4186 1.5 26.0195 8.88727 26.0195 18C26.0195 27.1127 33.4186 34.5 42.5459 34.5ZM42.5459 36C52.5028 36 60.5746 27.9411 60.5746 18C60.5746 8.0589 52.5028 0 42.5459 0C32.5888 0 24.5172 8.0589 24.5172 18C24.5172 27.9411 32.5888 36 42.5459 36Z" fill="#FBFBFC"></path></g><defs><clipPath id="clip0_10_6719"><rect width="157" height="36" fill="#FBFBFC"></rect></clipPath></defs></svg>